# xmcd
# Copyright (C) 1995-1998 Ti Kan
#
# Track frame offsets:
#       150
#       29495
#       50740
#       76206
#       100740
#       133913
#       148323
#       171876
#       190960
#       214082
#
# Disc length: 3447 seconds
#
# Revision: 0
# Processed by: cddbd v1.5.2PL0 Copyright (c) Steve Scherf et al.
# Submitted via: CD-Import v1.0
#
DISCID=960d750a
DTITLE=Moloko - Statues
DYEAR=2002
DGENRE=
TTITLE0=Familiar Feelings
TTITLE1=Come On
TTITLE2=Cannot Contain This
TTITLE3=Statues
TTITLE4=Forever More
TTITLE5=Blow X Blow
TTITLE6=100%
TTITLE7=The Only Ones
TTITLE8=I Want You
TTITLE9=Over and Over
EXTD=
EXTT0=
EXTT1=
EXTT2=
EXTT3=
EXTT4=
EXTT5=
EXTT6=
EXTT7=
EXTT8=
EXTT9=
PLAYORDER=
